<svg width="193" height="154" viewBox="0 0 193 154" fill="none" xmlns="http://www.w3.org/2000/svg">
<path id="Arrow 1" d="M191.525 11.5964C191.777 11.1049 191.582 10.5023 191.091 10.2502L183.083 6.14347C182.591 5.89146 181.988 6.08555 181.736 6.57699C181.484 7.06841 181.679 7.6711 182.17 7.92312L189.289 11.5736L185.638 18.6922C185.386 19.1836 185.58 19.7863 186.072 20.0383C186.563 20.2903 187.166 20.0962 187.418 19.6048L191.525 11.5964ZM2.59744 153.391C4.58719 150.861 6.66163 148.278 8.81851 145.651L7.27264 144.382C5.10692 147.02 3.02374 149.614 1.02536 152.155L2.59744 153.391ZM21.7569 130.515C26.028 125.713 30.5352 120.826 35.2667 115.901L33.8245 114.515C29.0747 119.46 24.5501 124.365 20.2624 129.186L21.7569 130.515ZM49.3282 101.819C54.0238 97.2959 58.8966 92.7774 63.9376 88.2981L62.6092 86.8031C57.5473 91.3009 52.6549 95.8376 47.9407 100.378L49.3282 101.819ZM79.0898 75.3924C84.18 71.2413 89.4139 67.1562 94.7837 63.1669L93.591 61.5614C88.196 65.5695 82.9383 69.6731 77.8258 73.8424L79.0898 75.3924ZM111.036 51.6883C116.518 48.0156 122.122 44.4616 127.84 41.0539L126.816 39.3359C121.066 42.7625 115.433 46.3353 109.923 50.0267L111.036 51.6883ZM145.203 31.3629C151.07 28.3097 157.042 25.4259 163.111 22.738L162.301 20.9093C156.192 23.615 150.182 26.5171 144.28 29.5888L145.203 31.3629ZM181.542 15.3114C184.653 14.1822 187.786 13.108 190.941 12.0919L190.328 10.1882C187.149 11.2119 183.993 12.2941 180.86 13.4314L181.542 15.3114ZM192.414 12.0527C192.918 11.0698 192.53 9.86445 191.547 9.36042L175.531 1.14687C174.548 0.64285 173.342 1.03102 172.838 2.0139C172.334 2.99677 172.722 4.20214 173.705 4.70615L187.942 12.0071L180.641 26.2442C180.137 27.2271 180.526 28.4325 181.509 28.9365C182.491 29.4405 183.697 29.0523 184.201 28.0695L192.414 12.0527ZM3.38348 154.01C5.36892 151.485 7.43899 148.907 9.59144 146.285L6.49971 143.747C4.32957 146.391 2.24202 148.99 0.239315 151.537L3.38348 154.01ZM22.5041 131.18C26.7669 126.387 31.2655 121.51 35.9879 116.594L33.1033 113.823C28.3444 118.776 23.8111 123.691 19.5152 128.522L22.5041 131.18ZM50.0219 102.539C54.7083 98.0251 59.5712 93.5157 64.6018 89.0457L61.9449 86.0556C56.8727 90.5626 51.9704 95.1084 47.247 99.658L50.0219 102.539ZM79.7218 76.1673C84.8009 72.0253 90.0229 67.9495 95.3801 63.9696L92.9947 60.7587C87.587 64.7761 82.3175 68.8891 77.1939 73.0674L79.7218 76.1673ZM111.593 52.5191C117.061 48.8557 122.65 45.3112 128.352 41.913L126.304 38.4769C120.539 41.9129 114.89 45.4952 109.366 49.1959L111.593 52.5191ZM145.665 32.25C151.514 29.206 157.467 26.3313 163.516 23.6524L161.896 19.995C155.767 22.7095 149.739 25.6208 143.818 28.7017L145.665 32.25ZM181.883 16.2514C184.983 15.1263 188.105 14.056 191.248 13.0438L190.022 9.23635C186.831 10.2639 183.663 11.35 180.518 12.4914L181.883 16.2514Z" fill="#9BBDCF"/>
</svg>
