<svg width="222" height="84" viewBox="0 0 222 84" fill="none" xmlns="http://www.w3.org/2000/svg">
<path id="Arrow 2" d="M219.877 80.897C220.426 80.8385 220.824 80.3459 220.765 79.7967L219.812 70.8474C219.753 70.2982 219.26 69.9005 218.711 69.959C218.162 70.0175 217.764 70.5102 217.823 71.0593L218.671 79.0143L210.716 79.8622C210.167 79.9207 209.769 80.4134 209.827 80.9625C209.886 81.5117 210.379 81.9094 210.928 81.8509L219.877 80.897ZM0.92284 3.02981C4.08168 3.27411 7.32984 3.55905 10.6589 3.88759L10.8553 1.89726C7.51222 1.56733 4.24999 1.28116 1.07706 1.03576L0.92284 3.02981ZM30.1179 6.20615C36.3837 7.07927 42.8464 8.10113 49.4617 9.28737L49.8147 7.31877C43.1731 6.12782 36.6847 5.1019 30.394 4.22529L30.1179 6.20615ZM68.6687 13.1217C74.9356 14.5021 81.2946 16.0319 87.7119 17.7228L88.2215 15.7888C81.7768 14.0907 75.3914 12.5546 69.099 11.1685L68.6687 13.1217ZM106.543 23.116C112.718 25.0305 118.916 27.1008 125.108 29.3371L125.787 27.456C119.565 25.2089 113.338 23.1289 107.135 21.2057L106.543 23.116ZM143.357 36.4367C149.348 38.9423 155.307 41.6146 161.207 44.463L162.076 42.6619C156.143 39.7972 150.152 37.1103 144.129 34.5916L143.357 36.4367ZM178.577 53.4766C184.262 56.6446 189.864 59.9933 195.356 63.5317L196.439 61.8505C190.909 58.2879 185.271 54.9173 179.55 51.7296L178.577 53.4766ZM211.422 74.6817C214.03 76.632 216.604 78.6313 219.143 80.6807L220.399 79.1246C217.841 77.0593 215.247 75.0448 212.619 73.08L211.422 74.6817ZM219.983 81.8914C221.081 81.7743 221.877 80.789 221.76 79.6907L219.852 61.7921C219.735 60.6937 218.75 59.8982 217.651 60.0153C216.553 60.1324 215.758 61.1177 215.875 62.216L217.57 78.1259L201.66 79.8217C200.562 79.9388 199.767 80.924 199.884 82.0224C200.001 83.1207 200.986 83.9162 202.084 83.7992L219.983 81.8914ZM0.845732 4.02683C3.99753 4.27059 7.23865 4.55491 10.5607 4.88276L10.9535 0.902092C7.6034 0.571471 4.33414 0.28468 1.15417 0.0387433L0.845732 4.02683ZM29.9799 7.19658C36.2332 8.06796 42.683 9.08779 49.2852 10.2717L49.9912 6.33446C43.3364 5.14116 36.8353 4.11321 30.532 3.23486L29.9799 7.19658ZM68.4536 14.0983C74.7078 15.4759 81.0535 17.0025 87.4571 18.6898L88.4763 14.8218C82.0179 13.1201 75.6193 11.5808 69.3141 10.1919L68.4536 14.0983ZM106.247 24.0711C112.408 25.9813 118.591 28.0468 124.768 30.2776L126.127 26.5155C119.89 24.2629 113.648 22.1781 107.432 20.2505L106.247 24.0711ZM142.971 37.3593C148.947 39.8583 154.889 42.5233 160.772 45.3635L162.511 41.7614C156.561 38.8886 150.553 36.1943 144.515 33.669L142.971 37.3593ZM178.09 54.3502C183.757 57.5082 189.341 60.846 194.814 64.3724L196.981 61.0098C191.432 57.4351 185.776 54.0537 180.037 50.856L178.09 54.3502ZM210.823 75.4825C213.421 77.4256 215.986 79.4173 218.515 81.4588L221.027 78.3465C218.459 76.2733 215.855 74.2512 213.218 72.2791L210.823 75.4825Z" fill="#9BBDCF"/>
</svg>
